<svg width="190" height="114" viewBox="0 0 190 114" fill="none" xmlns="http://www.w3.org/2000/svg">
<path fill-rule="evenodd" clip-rule="evenodd" d="M151.333 0H28.375C20.8495 0 13.6322 2.9895 8.31085 8.31085C2.9895 13.6322 0 20.8495 0 28.375V85.125C0 92.6505 2.9895 99.8678 8.31085 105.189C13.6322 110.51 20.8495 113.5 28.375 113.5H151.333C158.859 113.5 166.076 110.51 171.398 105.189C176.719 99.8678 179.708 92.6505 179.708 85.125C182.217 85.125 184.623 84.1285 186.396 82.3547C188.17 80.5809 189.167 78.1752 189.167 75.6667V37.8333C189.167 35.3248 188.17 32.9191 186.396 31.1453C184.623 29.3715 182.217 28.375 179.708 28.375C179.708 20.8495 176.719 13.6322 171.398 8.31085C166.076 2.9895 158.859 0 151.333 0ZM151.333 18.9167H28.375C25.8665 18.9167 23.4607 19.9132 21.687 21.6869C19.9132 23.4607 18.9167 25.8665 18.9167 28.375V85.125C18.9167 87.6335 19.9132 90.0393 21.687 91.813C23.4607 93.5868 25.8665 94.5833 28.375 94.5833H151.333C153.842 94.5833 156.248 93.5868 158.021 91.813C159.795 90.0393 160.792 87.6335 160.792 85.125V28.375C160.792 25.8665 159.795 23.4607 158.021 21.6869C156.248 19.9132 153.842 18.9167 151.333 18.9167Z" fill="black"/>
</svg>
